<?xml version="1.0" encoding="UTF-8" standalone="no"?>
<!-- Created with Inkscape (http://www.inkscape.org/) -->

<svg
   xmlns:dc="http://purl.org/dc/elements/1.1/"
   xmlns:cc="http://creativecommons.org/ns#"
   xmlns:rdf="http://www.w3.org/1999/02/22-rdf-syntax-ns#"
   xmlns:svg="http://www.w3.org/2000/svg"
   xmlns="http://www.w3.org/2000/svg"
   xmlns:sodipodi="http://sodipodi.sourceforge.net/DTD/sodipodi-0.dtd"
   xmlns:inkscape="http://www.inkscape.org/namespaces/inkscape"
   width="1080"
   height="140"
   viewBox="0 0 1080 139.99999"
   id="svg2"
   version="1.1"
   inkscape:version="0.91 r13725"
   sodipodi:docname="mountain.svg">
  <defs
     id="defs4" />
  <sodipodi:namedview
     id="base"
     pagecolor="#ffffff"
     bordercolor="#666666"
     borderopacity="1.0"
     inkscape:pageopacity="0.0"
     inkscape:pageshadow="2"
     inkscape:zoom="1.4142136"
     inkscape:cx="479.59416"
     inkscape:cy="13.60059"
     inkscape:document-units="px"
     inkscape:current-layer="layer1"
     showgrid="false"
     units="px"
     inkscape:showpageshadow="false"
     inkscape:window-width="1325"
     inkscape:window-height="744"
     inkscape:window-x="41"
     inkscape:window-y="24"
     inkscape:window-maximized="1" />
  <metadata
     id="metadata7">
    <rdf:RDF>
      <cc:Work
         rdf:about="">
        <dc:format>image/svg+xml</dc:format>
        <dc:type
           rdf:resource="http://purl.org/dc/dcmitype/StillImage" />
        <dc:title />
      </cc:Work>
    </rdf:RDF>
  </metadata>
  <g
     inkscape:label="Layer 1"
     inkscape:groupmode="layer"
     id="layer1"
     transform="translate(0,-912.36234)">
    <path
       style="fill:#cccccc"
       d="m -8.793467,1056.7064 5.1331318,-18.73 13.0501787,-6.6556 C 88.669607,1014.3949 116.50018,973.09017 169.95583,958.26573 c 1.1126,-0.36008 6.34688,-1.52311 11.63172,-2.58451 5.28485,-1.06141 10.65433,-2.15094 11.93218,-2.4212 58.67033,34.27502 39.54518,25.72695 104.98252,49.74908 10.68465,-5.4122 16.07501,-9.34584 22.41117,-12.47135 6.59777,-3.25447 10.65317,-8.77467 17.12137,-11.99443 17.19206,-8.5579 31.712,-5.5706 56.26345,-18.7794 2.0299,-0.23183 -4.658,-0.91953 19.5211,-10.68469 6.91123,-2.79124 16.85967,-7.78685 27.84566,-12.39739 18.93209,-7.94535 33.62434,-13.09504 36.3062,-14.10928 12.41314,3.72975 12.66577,5.70608 21.09575,6.89158 11.8703,1.66933 27.71129,4.84725 52.58654,10.21132 19.6357,4.23422 26.67828,5.82038 42.96981,9.67782 49.6238,11.74975 44.91981,10.87475 82.15601,15.28185 16.5402,1.95763 26.02445,4.37516 54.91309,13.99729 19.15642,6.38058 25.85243,8.20267 39.95245,10.87152 22.29608,4.22032 34.52704,5.36472 47.03264,4.40074 14.24278,-1.09784 59.6528,-9.21678 103.19544,-13.89039 9.19383,-0.98684 21.25536,-2.06545 26.8035,-2.39697 5.54814,-0.3315 11.79548,-0.71947 13.88307,-0.86216 3.50411,-0.23952 4.28091,-0.0292 10.11462,2.73926 16.84609,7.99449 33.28668,13.7035 47.47558,16.48589 17.1642,3.36579 60.6539,13.70779 65.7195,16.34129 0.8451,0.4392 2.2809,7.0164 1.8965,21.4007 l -0.5472,20.4638 -543.90951,3.1949 -544.2889707,-2.7416 z"
       id="path3337"
       inkscape:connector-curvature="0"
       sodipodi:nodetypes="ccccsccsacsscsssssssssssscscccc" />
    <path
       sodipodi:nodetypes="ccccsccsacsscsssssssssssscscccc"
       inkscape:connector-curvature="0"
       id="path3341"
       d="m -8.029263,1056.1303 6.1951588,-17.3105 12.1839702,-6.4832 c 79.38287,-15.4781 106.004624,-58.70874 159.529794,-72.26496 1.11404,-0.32927 6.35513,-1.39282 11.64685,-2.36341 5.29172,-0.9706 10.66818,-1.96693 11.94769,-2.21408 58.74664,31.34279 40.48164,28.0743 106.00407,50.04135 10.69856,-4.9492 16.09592,-8.5463 22.44032,-11.40439 6.60636,-2.97613 10.23682,-7.7943 17.14364,-10.96839 16.38461,-7.52949 31.75324,-6.48039 56.33663,-18.55918 2.03253,-0.212 -4.66406,-0.84086 19.54648,-9.77063 6.92022,-2.55244 16.8816,-7.12068 27.88187,-11.3368 18.95671,-7.26562 33.66807,-11.97476 36.35343,-12.90223 12.42928,3.41067 12.68223,5.21792 21.12318,6.302 11.88574,1.52651 27.74733,4.43258 52.65493,9.33776 19.66124,3.87199 26.71298,5.32244 43.02569,8.84988 49.68835,10.74457 44.97823,9.94442 82.26286,13.9745 16.56172,1.79015 26.05829,4.00086 54.98451,12.79986 19.18134,5.83469 25.88606,7.50091 40.00441,9.94149 22.32507,3.85917 34.57195,4.90573 47.0938,4.02423 14.26131,-1.00398 59.73038,-5.1514 103.32965,-9.4252 9.2058,-0.90238 21.283,-1.88873 26.83836,-2.19186 5.55537,-0.30321 11.81083,-0.65797 13.90113,-0.78847 3.50867,-0.21902 4.28648,-0.0265 10.12778,2.50497 16.86799,7.31051 33.33006,12.53116 47.53736,15.07546 17.1865,3.0779 60.7328,12.5352 65.805,14.9434 0.8462,0.4016 2.2838,6.4162 1.8988,19.5698 l -0.5478,18.7132 -544.61691,8.4655 -544.4658157,-5.1567 z"
       style="fill:#ffffff" />
    <path
       style="fill:#ececec"
       inkscape:transform-center-x="-1.9665681"
       inkscape:transform-center-y="9.3721819"
       d="m 528.107,983.25877 -53.28136,-37.8415 -72.30585,41.68408 -6.82946,-1.84477 78.78075,-43.16686 53.77423,41.13142 z"
       id="path3349"
       inkscape:connector-curvature="0"
       sodipodi:nodetypes="ccccccc" />
    <path
       style="fill:#cccccc"
       inkscape:transform-center-x="-3.0472016"
       inkscape:transform-center-y="-3.3078138"
       d="m 163.44207,1041.0446 -72.002731,-15.7373 24.641761,-22.2151 -51.274752,28.1527 -54.29621,3.7353 53.566486,-6.5939 60.171196,-31.3959 -27.751596,27.9537 z"
       id="path3351"
       inkscape:connector-curvature="0"
       sodipodi:nodetypes="ccccccccc" />
    <path
       style="fill:#e6e6e6"
       inkscape:transform-center-x="-1.5864449"
       inkscape:transform-center-y="-0.9128358"
       d="m 240.61603,993.61416 -40.53486,-16.06041 -48.10628,20.77765 44.59911,-23.07598 -1.0788,-9.75279 4.786,9.36598 z"
       id="path3353"
       inkscape:connector-curvature="0"
       sodipodi:nodetypes="ccccccc" />
    <path
       style="fill:#ececec"
       inkscape:transform-center-x="4.4886578"
       inkscape:transform-center-y="5.5130198"
       d="m 282.631,1015.1447 -95.89205,-8.538 95.12483,4.4486 34.66725,9.6234 24.91203,18.4833 -30.39206,-15.9983 z"
       id="path3355"
       inkscape:connector-curvature="0"
       sodipodi:nodetypes="ccccccc" />
    <path
       style="fill:#ececec"
       inkscape:transform-center-x="-4.437824"
       inkscape:transform-center-y="-1.1026482"
       d="m 760.91132,1053.2927 -116.34508,0.5276 -104.83025,-0.2521 61.02805,-21.1257 41.00227,-32.041 46.80607,14.3608 z"
       id="path3357"
       inkscape:connector-curvature="0"
       sodipodi:nodetypes="ccccccc" />
    <path
       style="fill:#cccccc"
       inkscape:transform-center-x="-4.33202"
       d="m 1084.7442,1034.8405 -127.77721,-40.36642 -234.72233,21.27092 95.14108,-10.2384 144.20422,-18.42473 40.04944,18.81153 z"
       id="path3359"
       inkscape:connector-curvature="0"
       sodipodi:nodetypes="ccccccc"
       inkscape:transform-center-y="-6.0095721" />
    <path
       style="fill:#ececec"
       inkscape:transform-center-x="6.9468325"
       inkscape:transform-center-y="-6.1260392"
       d="m 385.44584,997.0239 180.10999,5.9203 51.98024,-8.36948 -50.12945,14.65968 z"
       id="path3363"
       inkscape:connector-curvature="0"
       sodipodi:nodetypes="ccccc" />
    <path
       sodipodi:nodetypes="ccccccc"
       inkscape:connector-curvature="0"
       id="path3378"
       d="m 760.91132,1053.3428 -113.44818,0.4775 -102.22006,-0.2282 59.5085,-19.1215 39.98135,-29.0012 45.64063,12.9983 z"
       inkscape:transform-center-y="-0.99799967"
       inkscape:transform-center-x="-4.3273262"
       style="fill:#ffffff" />
    <path
       inkscape:transform-center-y="-6.2057786"
       sodipodi:nodetypes="ccccccc"
       inkscape:connector-curvature="0"
       id="path3380"
       d="m 1075.8687,1049.5838 -133.85442,-24.0359 -51.08949,17.5483 37.05424,-18.5666 -38.17716,-5.2451 57.49548,1.2326 z"
       inkscape:transform-center-x="-4.2661712"
       style="fill:#e6e6e6" />
    <g
       id="g3391"
       transform="matrix(-0.06076071,0,0,0.06076071,820.42207,965.53371)">
      <rect
         id="rect3345"
         height="65.614998"
         width="114.037"
         style="fill:#8fd9c2"
         transform="matrix(-0.9239,0.3827,-0.3827,-0.9239,219.1548,404.1167)"
         y="191.048"
         x="12.366" />
      <rect
         id="rect3347"
         height="87.976997"
         width="267.30801"
         style="fill:#b7e8d9"
         transform="matrix(-0.9239,0.3827,-0.3827,-0.9239,510.5858,209.3656)"
         y="111.476"
         x="100.816" />
      <polygon
         id="polygon3349"
         points="398.664,45.226 356.439,45.226 325.755,57.936 367.981,159.877 398.664,147.168 "
         style="fill:#8fd9c2" />
      <rect
         id="rect3351"
         height="110.34"
         width="118.178"
         style="fill:#127c8d"
         transform="matrix(-0.9239,0.3827,-0.3827,-0.9239,859.5591,-23.8146)"
         y="18.413"
         x="373.05899" />
      <path
         id="path3353-3"
         d="m 351.723,501.474 -43.189,-155.328 0.144,0 c 4.586,0 8.303,-3.717 8.303,-8.303 0,-4.585 -3.716,-8.303 -8.303,-8.303 l -4.761,0 -7.544,-27.132 c -0.999,-3.592 -4.27,-6.079 -7.999,-6.079 l -24.074,0 0,-60.675 27.25,-11.288 c 4.237,-1.755 6.249,-6.612 4.493,-10.848 -1.756,-4.236 -6.611,-6.248 -10.848,-4.493 l -32.388,13.416 c -0.024,0.01 -0.05,0.02 -0.074,0.031 l -32.292,13.376 c -4.237,1.755 -6.249,6.612 -4.493,10.848 1.324,3.197 4.415,5.128 7.674,5.128 1.058,0 2.135,-0.204 3.174,-0.634 l 20.897,-8.656 0,53.797 -24.074,0 c -3.728,0 -7,2.486 -7.999,6.079 l -7.544,27.132 -4.761,0 c -4.586,0 -8.303,3.717 -8.303,8.303 0,4.586 3.716,8.303 8.303,8.303 l 0.144,0 -43.189,155.328 c -1.229,4.418 1.357,8.995 5.775,10.223 4.416,1.225 8.995,-1.358 10.222,-5.775 l 44.427,-159.776 27,0 0,157.551 c 0,4.585 3.716,8.303 8.303,8.303 4.587,0 8.303,-3.717 8.303,-8.303 l 0,-157.553 27,0 44.427,159.776 c 1.022,3.674 4.359,6.081 7.995,6.081 0.736,0 1.485,-0.098 2.228,-0.306 4.416,-1.228 7.002,-5.806 5.773,-10.223 z M 225.31,329.541 l 4.617,-16.605 52.136,0 4.617,16.605 -61.37,0 z"
         style="fill:#235c6d"
         inkscape:connector-curvature="0" />
      <g
         id="g3355" />
      <g
         id="g3357" />
      <g
         id="g3359" />
      <g
         id="g3361" />
      <g
         id="g3363" />
      <g
         id="g3365" />
      <g
         id="g3367" />
      <g
         id="g3369" />
      <g
         id="g3371" />
      <g
         id="g3373" />
      <g
         id="g3375" />
      <g
         id="g3377" />
      <g
         id="g3379" />
      <g
         id="g3381" />
      <g
         id="g3383" />
    </g>
    <g
       id="g3470"
       transform="matrix(0.11515619,0,0,0.11515619,155.55529,912.05079)">
      <path
         id="path3414"
         d="m 62.479,244.235 -50.308,0 C 12.171,109.563 121.734,0 256.406,0 l 0,50.307 -193.927,193.928 z"
         style="fill:#3c5d76"
         inkscape:connector-curvature="0" />
      <polygon
         id="polygon3416"
         points="485.196,92.41 416.346,23.56 381.921,57.983 399.134,75.197 329.671,144.658 364.096,179.083 433.559,109.622 450.769,126.832 "
         style="fill:#1e2e3b" />
      <path
         id="path3418"
         d="m 61.667,301.033 c 0,50.033 0,210.967 0,210.967 l 389.477,0 c 0,0 0,-160.934 0,-210.967 l -389.477,0 z"
         style="fill:#78b9eb"
         inkscape:connector-curvature="0" />
      <path
         id="path3420"
         d="m 256.406,317.262 c 0,46.184 0,194.738 0,194.738 l 194.739,0 c 0,0 0,-148.555 0,-194.738 l -194.739,0 z"
         style="fill:#5a8bb0"
         inkscape:connector-curvature="0" />
      <rect
         id="rect3422"
         height="64.913002"
         width="146.054"
         style="fill:#1e2e3b"
         y="414.63101"
         x="183.379" />
      <path
         id="path3424"
         d="m 451.144,317.262 0,-73.027 c 0,-107.379 -87.36,-194.739 -194.739,-194.739 -107.379,0 -194.738,87.36 -194.738,194.739 l 0,73.027 389.477,0 z"
         style="fill:#bfe4f8"
         inkscape:connector-curvature="0" />
      <path
         id="path3426"
         d="M 183.379,63.718 C 112.08,92.666 61.667,162.668 61.667,244.235 l 0,73.027 121.712,0 0,-253.544 z"
         style="fill:#93c7ef"
         inkscape:connector-curvature="0" />
      <path
         id="path3428"
         d="m 329.433,63.718 c 71.299,28.948 121.712,98.952 121.712,180.516 l 0,73.027 -121.712,0 0,-253.543 z"
         style="fill:#78b9eb"
         inkscape:connector-curvature="0" />
      <rect
         id="rect3430"
         height="48.685001"
         width="486.84601"
         style="fill:#ac9393"
         y="463.315"
         x="12.983" />
      <rect
         id="rect3432"
         height="48.685001"
         width="243.423"
         style="fill:#916f6f"
         y="463.315"
         x="256.40601" />
      <g
         id="g3434" />
      <g
         id="g3436" />
      <g
         id="g3438" />
      <g
         id="g3440" />
      <g
         id="g3442" />
      <g
         id="g3444" />
      <g
         id="g3446" />
      <g
         id="g3448" />
      <g
         id="g3450" />
      <g
         id="g3452" />
      <g
         id="g3454" />
      <g
         id="g3456" />
      <g
         id="g3458" />
      <g
         id="g3460" />
      <g
         id="g3462" />
    </g>
  </g>
</svg>
