<?xml version="1.0" standalone="no"?>
<!DOCTYPE svg PUBLIC "-//W3C//DTD SVG 20010904//EN"
 "http://www.w3.org/TR/2001/REC-SVG-20010904/DTD/svg10.dtd">
<svg version="1.0" xmlns="http://www.w3.org/2000/svg"
 width="435.000000pt" height="435.000000pt" viewBox="0 0 435.000000 435.000000"
 preserveAspectRatio="xMidYMid meet">
<metadata>
Created by potrace 1.14, written by Peter Selinger 2001-2017
</metadata>
<g transform="translate(0.000000,435.000000) scale(0.100000,-0.100000)"
fill="#000000" stroke="none">
<path d="M3651 4343 c1 -5 1 -29 0 -56 l-1 -47 -60 4 c-33 2 -60 0 -60 -4 0
-4 -12 -6 -26 -4 -14 1 -41 -4 -60 -12 -19 -8 -34 -12 -34 -9 0 2 -21 -5 -47
-16 -90 -39 -98 -42 -105 -41 -5 1 -8 -2 -8 -6 0 -4 -25 -21 -55 -37 -30 -17
-55 -33 -55 -37 0 -5 -6 -8 -14 -8 -8 0 -17 -7 -20 -16 -3 -8 -9 -13 -14 -10
-4 2 -26 -12 -48 -32 -22 -20 -71 -64 -109 -97 -70 -61 -104 -94 -163 -157
-24 -26 -30 -38 -21 -43 7 -5 10 -4 6 2 -3 5 6 18 20 29 15 10 35 28 45 38 10
11 18 16 18 12 0 -4 11 5 25 20 14 15 25 24 25 20 0 -4 7 -1 15 6 31 28 44 38
51 38 4 0 15 6 23 14 21 18 111 67 111 61 0 -3 10 1 23 10 13 8 27 12 30 8 4
-3 7 -2 7 4 0 6 12 13 28 16 15 3 38 8 52 12 14 4 58 8 98 10 75 4 89 -7 29
-24 -25 -7 -27 -9 -9 -10 12 -1 22 -6 22 -12 0 -5 4 -8 8 -5 14 8 226 -55 246
-74 20 -19 28 -96 14 -137 -4 -12 -3 -25 2 -28 5 -3 7 -15 4 -28 -10 -43 -9
-104 1 -100 6 2 26 26 45 53 19 27 38 50 41 50 8 0 48 -145 55 -198 10 -84 14
-142 15 -247 1 -111 -8 -287 -16 -315 -2 -8 -7 -39 -10 -69 -4 -30 -9 -63 -11
-75 -2 -12 -7 -36 -10 -55 -8 -49 -10 -57 -34 -158 -12 -51 -21 -95 -21 -98 0
-2 -6 -23 -14 -45 -8 -22 -12 -40 -8 -40 3 0 0 -6 -6 -14 -6 -8 -11 -18 -10
-22 1 -5 0 -16 -3 -24 -9 -25 -50 -152 -53 -164 -1 -6 -7 -24 -14 -41 -7 -16
-22 -57 -33 -90 -11 -33 -25 -69 -31 -80 -6 -11 -12 -25 -13 -30 -1 -6 -10
-31 -21 -55 -30 -68 -36 -84 -35 -92 1 -5 -2 -8 -8 -8 -5 0 -10 -6 -10 -13 0
-15 -131 -280 -189 -382 -22 -38 -47 -83 -57 -100 -22 -40 -205 -317 -218
-331 -6 -7 -20 -24 -31 -40 -11 -15 -30 -38 -41 -51 -12 -13 -32 -39 -45 -58
-13 -19 -30 -35 -38 -35 -8 0 -12 -3 -8 -6 3 -3 -9 -20 -26 -38 -18 -18 -44
-47 -59 -65 -16 -18 -28 -31 -28 -28 0 2 -27 -21 -59 -52 -88 -83 -109 -101
-120 -101 -5 0 -11 -4 -13 -8 -4 -12 -106 -82 -118 -82 -5 0 -10 -5 -10 -11 0
-5 -5 -7 -10 -4 -6 3 -13 -1 -16 -9 -3 -9 -10 -14 -14 -11 -5 3 -14 -1 -22 -8
-7 -8 -19 -12 -26 -9 -6 2 -12 0 -12 -5 0 -7 -62 -31 -102 -39 -5 -1 -9 -2
-10 -4 -13 -10 -185 -20 -193 -11 -3 2 -15 6 -26 8 -34 5 -102 39 -143 72 -21
17 -36 31 -33 31 3 0 -8 14 -25 32 -16 17 -38 49 -49 70 -11 21 -22 38 -25 38
-3 0 -2 -4 1 -10 3 -5 8 -20 10 -32 8 -38 47 -130 79 -183 33 -56 176 -202
176 -180 0 3 10 -1 23 -9 53 -35 195 -50 287 -31 19 4 41 8 48 8 6 0 12 4 12
9 0 4 3 7 8 7 4 -1 9 -1 12 1 3 1 16 4 30 6 14 3 27 9 28 14 2 6 9 10 16 10
15 0 99 41 121 60 8 7 15 9 15 6 0 -4 10 2 22 14 12 11 25 20 28 20 4 0 17 9
30 20 12 11 27 17 31 14 5 -3 9 1 9 9 0 8 15 22 34 32 19 11 33 23 30 27 -3 4
-1 8 5 8 9 0 82 64 160 141 59 58 143 153 216 244 22 28 43 55 48 60 5 6 35
48 68 95 33 47 66 93 74 102 8 10 11 18 7 18 -4 0 -2 4 3 8 21 14 167 258 221
366 19 39 61 121 92 181 63 118 169 363 221 510 18 50 35 97 38 105 3 8 7 20
9 25 1 6 19 62 39 125 20 63 38 124 40 135 2 11 13 56 25 100 11 44 22 89 24
100 2 11 7 27 10 35 3 8 7 31 10 50 3 19 8 45 10 56 2 12 7 39 10 60 3 22 8
50 11 64 2 14 7 42 10 64 3 21 8 42 11 47 3 5 1 9 -5 9 -7 0 -7 8 -2 23 18 47
31 382 16 406 -3 6 -1 11 5 11 6 0 8 5 4 11 -6 11 -9 32 -18 134 -2 22 -6 47
-9 55 -3 8 -8 31 -11 51 -7 38 3 43 46 24 29 -12 40 -1 21 20 -10 11 -30 36
-43 55 -13 19 -33 44 -43 55 -10 11 -31 40 -47 64 -27 40 -28 45 -15 70 7 14
24 37 37 51 13 14 43 52 68 85 74 98 71 93 57 91 -6 -1 -16 -4 -22 -7 -5 -4
-35 -14 -65 -23 -30 -10 -62 -20 -70 -23 -8 -4 -17 -7 -20 -8 -3 0 -32 -9 -64
-20 l-59 -19 -21 26 c-30 37 -46 57 -91 116 -27 36 -46 52 -62 52 -13 0 -22
-3 -22 -7z"/>
<path d="M468 2775 c-2 -1 -26 -5 -54 -8 -142 -15 -225 -121 -198 -255 11 -56
65 -105 171 -156 116 -57 141 -77 137 -113 -5 -50 -36 -68 -117 -68 -61 0 -83
5 -134 30 l-60 30 0 -77 c1 -78 1 -78 31 -88 126 -40 291 -29 366 24 58 41 82
89 81 166 0 95 -44 147 -181 212 -119 56 -143 82 -124 133 17 44 154 55 232
17 23 -11 42 -17 43 -14 4 26 4 110 1 124 -2 10 -20 22 -41 27 -37 10 -147 22
-153 16z"/>
<path d="M3170 2765 c-77 -17 -118 -37 -172 -85 -71 -62 -121 -177 -120 -275
4 -191 87 -307 252 -350 55 -14 178 -10 245 8 l50 13 3 72 c2 41 -1 72 -7 72
-5 0 -29 -8 -53 -18 -55 -24 -160 -22 -209 3 -75 39 -110 103 -110 200 0 101
51 187 130 217 57 21 158 14 234 -17 15 -6 17 0 17 68 0 83 2 81 -73 92 -73
12 -132 12 -187 0z"/>
<path d="M1037 2762 c-9 -2 -18 -7 -18 -10 -5 -24 -4 -112 0 -114 4 0 42 -2
86 -4 44 -1 87 -3 95 -3 13 -1 15 -39 15 -284 l0 -282 50 -5 c28 -3 64 -4 80
-2 l30 4 0 271 c-1 150 2 279 6 287 6 12 27 15 101 14 l94 -1 1 63 c0 35 -3
64 -6 65 -17 3 -520 4 -534 1z"/>
<path d="M2130 2760 c-8 -5 -25 -49 -137 -360 -25 -69 -49 -134 -54 -145 -20
-46 -69 -189 -65 -192 6 -6 155 -5 164 1 5 3 18 35 27 71 10 36 23 69 29 73 6
3 64 6 128 7 l118 0 21 -70 c12 -38 25 -74 30 -79 8 -9 158 -11 166 -3 2 3
-34 110 -80 237 -3 8 -33 94 -67 190 -33 96 -64 182 -69 190 -5 9 -12 30 -16
48 -5 23 -12 32 -28 33 -77 4 -160 3 -167 -1z m131 -292 c21 -67 38 -123 36
-124 -6 -6 -156 -8 -162 -2 -4 3 10 60 30 125 20 65 39 127 43 138 5 18 6 18
10 2 2 -10 21 -73 43 -139z"/>
<path d="M833 2203 c-28 -5 -63 -49 -63 -77 1 -40 55 -87 94 -80 51 8 67 16
81 44 19 36 19 34 0 71 -9 16 -27 34 -41 39 -26 10 -33 10 -71 3z"/>
<path d="M1694 2203 c-48 -10 -72 -67 -48 -114 13 -25 54 -47 82 -43 6 1 18 2
26 3 27 2 58 37 62 72 4 27 0 39 -18 57 -25 23 -68 33 -104 25z"/>
<path d="M2670 2203 c-55 -20 -71 -97 -28 -133 26 -22 43 -26 92 -21 55 5 84
91 43 129 -23 22 -80 35 -107 25z"/>
<path d="M2890 1911 c0 -82 17 -87 19 -6 1 38 -3 65 -9 65 -6 0 -10 -26 -10
-59z"/>
<path d="M2939 1956 c0 -9 -1 -32 -1 -51 0 -59 2 -69 9 -61 10 10 11 116 1
122 -4 3 -8 -2 -9 -10z"/>
<path d="M2983 1952 c6 -8 11 -34 9 -58 -1 -24 3 -44 8 -44 6 0 10 23 10 50 0
28 5 50 10 50 6 0 10 5 10 10 0 6 -13 9 -29 8 -25 -2 -28 -5 -18 -16z"/>
<path d="M3089 1958 c0 -7 -3 -38 -5 -68 -5 -54 2 -65 11 -19 16 76 17 99 6
99 -6 0 -11 -6 -12 -12z"/>
<path d="M3134 1934 c-5 -25 -9 -32 -15 -22 -6 8 -9 0 -9 -24 0 -45 12 -49 27
-10 l11 27 1 -35 c1 -24 4 -30 10 -20 10 19 2 120 -10 120 -4 0 -11 -16 -15
-36z"/>
<path d="M3367 1964 c-3 -3 -3 -12 0 -20 3 -9 -2 -14 -17 -14 -19 0 -21 -5
-18 -42 6 -78 47 -57 51 25 3 53 -1 66 -16 51z m-3 -89 c-8 -33 -23 -15 -16
21 3 16 8 22 14 16 5 -5 6 -21 2 -37z"/>
<path d="M3193 1924 c-21 -22 -16 -64 10 -73 30 -12 37 -6 37 34 0 40 -27 62
-47 39z m30 -24 c3 -10 -1 -24 -8 -30 -9 -8 -14 -6 -17 7 -6 21 0 43 12 43 4
0 10 -9 13 -20z"/>
<path d="M3255 1920 c-1 -3 1 -23 5 -45 8 -43 10 -41 19 36 0 5 5 8 9 5 5 -3
7 -18 4 -34 -2 -16 1 -33 7 -36 7 -5 11 8 11 38 0 43 -2 46 -26 44 -14 -2 -27
-5 -29 -8z"/>
<path d="M3409 1928 c-6 -16 -5 -66 2 -78 5 -10 8 1 9 33 0 26 -2 47 -5 47 -3
0 -5 -1 -6 -2z"/>
</g>
</svg>
